<?xml version="1.0" encoding="UTF-8"?>
<svg version="1.1" xmlns="http://www.w3.org/2000/svg" width="1280" height="968">
<path d="M0 0 C7.46362917 4.82639485 11.50875442 11.49386248 13.8125 20 C14.48315869 30.73053898 14.31851773 40.44105554 7 49 C-0.58484368 55.30410085 -8.0691081 58.55484876 -17.875 58.375 C-18.67220459 58.36484863 -19.46940918 58.35469727 -20.29077148 58.34423828 C-29.96858122 58.08864662 -37.51762885 55.35028663 -45 49 C-45 48.34 -45 47.68 -45 47 C-45.66 47 -46.32 47 -47 47 C-48.69140625 44.515625 -48.69140625 44.515625 -50.5625 41.25 C-51.18253906 40.18265625 -51.80257812 39.1153125 -52.44140625 38.015625 C-55.37079209 32.34774063 -56.01102077 26.69167011 -54.31640625 20.50390625 C-50.65274882 10.51625922 -43.97952088 3.62441358 -34.5703125 -1.26171875 C-23.47185264 -5.95468768 -10.65579837 -5.76405145 0 0 Z M-30 17 C-32.90369195 22.84323195 -34.21774136 29.55048096 -33 36 C-30.43858727 39.41521697 -27.90048145 41.3670745 -24 43 C-19.52014555 43.56089235 -15.34474334 43.45778497 -11.0625 42 C-6.56275123 37.63660725 -5.81321879 32.38163431 -5.625 26.375 C-5.792159 20.88914541 -6.97126373 17.25415141 -10.6875 13.125 C-16.99530048 10.05634031 -25.45139796 11.6850574 -30 17 Z " fill="#F0F0F0" transform="translate(720,241)"/>
<path d="M0 0 C1.88566746 1.48159586 3.73973728 3.00416624 5.5625 4.5625 C6.76742131 5.40048917 7.98424972 6.22155326 9.2109375 7.02734375 C15.62428775 11.24463044 15.62428775 11.24463044 18.5625 13.5625 C18.5625 14.2225 18.5625 14.8825 18.5625 15.5625 C19.24957031 15.79453125 19.93664062 16.0265625 20.64453125 16.265625 C24.19738214 17.84466984 27.14884801 20.00652609 30.25 22.3125 C51.49580907 37.71481449 73.38658876 42.97284643 98.9609375 47.39453125 C103.9216539 48.25759822 108.83622264 49.21519678 113.75 50.3125 C118.68762304 51.40631637 123.51180887 52.25667834 128.5625 52.5625 C129.33722656 52.61535156 130.11195313 52.66820312 130.91015625 52.72265625 C144.33229671 53.21189433 157.2846029 47.37468495 169.75 43 C173.09566561 41.82622233 176.44359741 40.65924889 179.79296875 39.49609375 C180.54007614 39.23146835 181.28718353 38.96684296 182.05693054 38.69419861 C195.35436203 34.07781484 208.64496133 33.33203977 222.62475586 33.21240234 C224.04712158 33.19573591 225.46940002 33.16830725 226.89135742 33.13037109 C235.34343767 32.90756554 241.91906347 32.8508456 248.5625 38.5625 C249.84190802 39.55175006 251.12728845 40.53331524 252.41796875 41.5078125 C253.07845215 42.0121582 253.73893555 42.51650391 254.41943359 43.03613281 C258.36737548 45.84799573 262.63471889 48.10164468 266.875 50.4375 C290.45236989 63.69964239 290.45236989 63.69964239 294.5625 71.5625 C294.75350466 77.00613287 292.98837173 80.41539211 289.5625 84.5625 C284.26332044 88.9547957 279.8372828 90.62557427 273.125 91.875 C272.29806641 92.04322266 271.47113281 92.21144531 270.61914062 92.38476562 C268.60328643 92.7925974 266.58326295 93.17973115 264.5625 93.5625 C263.81730183 95.38596143 263.81730183 95.38596143 263.5625 97.5625 C264.54600623 99.36001866 264.54600623 99.36001866 266.17578125 100.953125 C266.75972656 101.57678955 267.34367188 102.2004541 267.9453125 102.84301758 C268.58210937 103.49294678 269.21890625 104.14287598 269.875 104.8125 C270.51566406 105.47983154 271.15632812 106.14716309 271.81640625 106.8347168 C280.17298542 115.41378989 287.34873382 122.72365392 299.921875 122.8984375 C302.38533572 122.92227744 304.84892525 122.93493911 307.3125 122.9375 C309.14941406 122.97423828 309.14941406 122.97423828 311.0234375 123.01171875 C321.08737779 123.04404404 328.26926092 120.82709741 336.75 115.5 C357.40561699 104.12941139 389.06153037 105.12723804 412.125 107.3125 C412.83922119 107.37397217 413.55344238 107.43544434 414.28930664 107.4987793 C423.34505333 108.51978591 430.19044005 112.65306822 437.1875 118.25 C463.52990913 138.59646964 495.09188824 152.69546551 528.6484375 152.73046875 C529.78544098 152.73379715 530.92244446 152.73712555 532.09390259 152.74055481 C534.49244791 152.74559373 536.89100017 152.74796408 539.28955078 152.74780273 C542.89237581 152.74997282 546.49488589 152.76811627 550.09765625 152.78710938 C563.05595632 152.8179295 575.70819886 152.26962377 588.57623291 150.775177 C592.81876508 150.32091331 597.04917071 150.19482531 601.3125 150.1875 C602.10914063 150.16300781 602.90578125 150.13851562 603.7265625 150.11328125 C609.46608174 150.08505411 613.75770818 151.37894813 618.5625 154.5625 C620.6875 156.8125 620.6875 156.8125 621.5625 159.5625 C620.10191115 172.29048857 609.44070587 179.50851206 600.29833984 187.26904297 C598.47094102 188.63072496 596.62626235 189.60490975 594.5625 190.5625 C594.5625 191.2225 594.5625 191.8825 594.5625 192.5625 C592.99309199 194.00062673 591.35375965 195.3628005 589.6875 196.6875 C588.78257813 197.41195312 587.87765625 198.13640625 586.9453125 198.8828125 C586.16849121 199.49213623 586.16849121 199.49213623 585.37597656 200.11376953 C584.01209871 201.20332946 582.66831082 202.31811142 581.33496094 203.44482422 C575.4247707 208.36686433 569.44336296 212.03411299 562.5625 215.4375 C560.53290818 216.46949584 558.50427271 217.50337449 556.4765625 218.5390625 C555.47915039 219.04598633 554.48173828 219.55291016 553.45410156 220.07519531 C543.0322964 225.43568476 532.90014006 231.26950067 522.9765625 237.5 C519.63096982 239.52113608 516.23841098 241.40719346 512.80566406 243.27416992 C493.0945837 253.67441138 493.0945837 253.67441138 481.91015625 272.03515625 C481.20497172 277.16161008 482.74180839 281.41297141 484.9609375 285.9765625 C485.44046875 286.98589844 485.92 287.99523437 486.4140625 289.03515625 C487.41902712 291.11465996 488.42678051 293.19281854 489.4375 295.26953125 C494.29701392 305.52128656 499.16650375 317.63048715 495.8359375 329.0546875 C494.51083982 332.51286926 493.01205109 335.77037316 491.18359375 338.9921875 C484.63241043 350.6760643 488.08651774 363.17526185 490.4375 375.6875 C490.71057921 377.18602623 490.98271948 378.68472389 491.25390625 380.18359375 C492.35151439 386.21453113 493.4835623 392.23455363 494.7421875 398.234375 C496.99716708 409.38674526 495.94303024 420.90496027 489.5625 430.5625 C485.66250905 435.05361712 481.35149019 437.66263034 476.1875 440.4375 C474.9970105 441.08440796 474.9970105 441.08440796 473.7824707 441.74438477 C453.45709054 452.68006906 435.9338195 458.08680361 412.68359375 454.07421875 C398.44900683 451.74038785 383.70098425 452.12455414 369.35302734 453.07666016 C358.71206459 453.75279078 350.56345119 452.87333551 340.54443359 449.03369141 C328.96129834 444.60604249 317.29754981 441.09435845 305.3125 437.9375 C301.90986482 437.03452278 298.5088557 436.12571869 295.109375 435.2109375 C294.28865005 434.99044739 293.46792511 434.76995728 292.62232971 434.54278564 C286.34848096 432.8331348 280.23091175 430.81219969 274.07861328 428.70556641 C268.33796271 426.83931686 262.49483779 425.45644729 256.625 424.0625 C248.88685736 422.18142722 241.19852801 420.2816724 233.625 417.8125 C215.34754874 411.88889106 197.32641404 410.16733022 178.23046875 412.4140625 C177.45651764 412.50304306 176.68256653 412.59202362 175.88516235 412.68370056 C167.05332721 413.71481246 158.23980336 414.86717918 149.4375 416.125 C148.56919556 416.24855865 147.70089111 416.37211731 146.80627441 416.49942017 C131.42655501 418.71906384 116.37349378 421.89194714 101.25146484 425.43554688 C66.84489652 433.48112515 66.84489652 433.48112515 53.0625 430.5625 C28.70572327 426.38791065 1.96241236 431.93256974 -22.22241211 435.84838867 C-32.4247284 437.48567176 -42.3380432 438.62350465 -52.6796875 438.5625 C-67.59000879 438.50553879 -77.72002185 438.75772784 -89.4375 448.5625 C-97.90378686 453.41412218 -107.93736891 454.21718757 -117.4375 455.5625 C-118.82293156 455.77203696 -120.20834886 455.98166822 -121.59375 456.19140625 C-143.01998906 459.31071436 -161.58048862 456.65592074 -181.59228516 448.22460938 C-199.7476521 440.64261721 -219.04266397 438.82311349 -238.4375 436.5625 C-239.6656543 436.41699707 -240.89380859 436.27149414 -242.15917969 436.12158203 C-265.37044682 433.46129525 -287.84794906 434.57180353 -310.87060547 438.5090332 C-332.56064351 442.20204373 -354.23214516 443.07287099 -373.75390625 431.63671875 C-391.45074867 417.9583733 -403.14795043 389.09718018 -406.4375 367.5625 C-406.52997521 365.08470828 -406.56749398 362.60451175 -406.5625 360.125 C-406.56507813 358.84753906 -406.56765625 357.57007813 -406.5703125 356.25390625 C-406.44988617 352.90676259 -405.99013265 349.85736287 -405.4375 346.5625 C-404.62002187 336.54777918 -404.12838912 326.9687238 -410.4375 318.5625 C-414.90117023 313.57737296 -421.50759388 312.43392755 -427.83178711 311.18164062 C-435.18070155 309.71864313 -440.3985096 308.46180584 -445.4375 302.5625 C-447.95138531 298.28280598 -448.32924219 294.42289665 -447.4375 289.5625 C-445.89494324 286.43632983 -443.83166796 284.07738231 -441.4375 281.5625 C-440.86515625 280.93859375 -440.2928125 280.3146875 -439.703125 279.671875 C-432.19595316 272.28481791 -422.59788651 267.57058097 -413.4375 262.5625 C-412.76831543 262.18561035 -412.09913086 261.8087207 -411.40966797 261.42041016 C-397.83752138 253.79817997 -383.01456555 249.60193581 -368.12109375 245.3125 C-366.98800781 244.9825 -365.85492188 244.6525 -364.6875 244.3125 C-363.76453125 244.05984375 -362.8415625 243.8071875 -361.890625 243.546875 C-358.93274692 242.35995577 -356.88564534 240.57764004 -354.4375 238.5625 C-353.7775 238.5625 -353.1175 238.5625 -352.4375 238.5625 C-352.4375 237.9025 -352.4375 237.2425 -352.4375 236.5625 C-351.7775 236.5625 -351.1175 236.5625 -350.4375 236.5625 C-349.21339463 234.12659183 -348.00707172 231.6830638 -346.80859375 229.234375 C-344.72416817 224.9902423 -342.59065807 220.77212857 -340.4375 216.5625 C-339.90479492 215.51449219 -339.90479492 215.51449219 -339.36132812 214.4453125 C-334.21037861 204.42695198 -328.40714803 196.49894117 -320.4375 188.5625 C-319.1071875 187.16064453 -319.1071875 187.16064453 -317.75 185.73046875 C-300.47451783 167.77702435 -279.92217759 157.86749867 -256.85522461 149.26586914 C-246.98724626 145.83479496 -246.98724626 145.83479496 -239.5625 138.875 C-236.34391968 129.39806906 -239.81808263 121.97094829 -243.5 113.1875 C-244.00562444 111.9452142 -244.50927026 110.70212135 -245.01098633 109.45825195 C-246.01072702 106.98142781 -247.01652592 104.50743393 -248.02636719 102.03466797 C-249.95262282 97.29501267 -251.81685717 92.53583259 -253.625 87.75 C-253.91576416 87.01152832 -254.20652832 86.27305664 -254.50610352 85.51220703 C-256.47864584 80.26229451 -257.46734552 75.56268922 -255.58203125 70.0703125 C-243.9337323 49.23317949 -229.39508555 32.40990584 -205.8828125 25.73828125 C-199.3136393 23.96398503 -192.68709641 22.42858886 -186.05859375 20.89453125 C-178.99868304 19.24642499 -171.99457869 17.38948463 -164.98803711 15.52954102 C-164.07417236 15.28776123 -163.16030762 15.04598145 -162.21875 14.796875 C-161.41501953 14.58256836 -160.61128906 14.36826172 -159.78320312 14.14746094 C-154.51223124 12.83300958 -149.41996769 12.29955304 -144 12.0625 C-143.12255127 12.02116943 -142.24510254 11.97983887 -141.34106445 11.93725586 C-134.95008925 11.65781971 -128.55926766 11.48669544 -122.1640625 11.34765625 C-120.93244637 11.31972488 -120.93244637 11.31972488 -119.6759491 11.29122925 C-115.5484711 11.19788922 -111.4211564 11.11279042 -107.29321289 11.04296875 C-91.93597958 10.74301314 -77.93770604 9.2512755 -63.3125 4.125 C-45.31714944 -2.07924629 -17.74033767 -10.88710209 0 0 Z M-96.6421814 35.68466187 C-102.60680891 36.48328917 -108.55832401 37.03218792 -114.5625 37.4375 C-124.96463029 38.21328464 -135.1864875 40.13794218 -145.4375 42 C-146.285401 42.15152527 -147.133302 42.30305054 -148.00689697 42.45916748 C-150.44428137 42.89798547 -152.87863408 43.35070348 -155.3125 43.80859375 C-156.0428244 43.93988174 -156.7731488 44.07116974 -157.52560425 44.20643616 C-166.83742456 46.00794602 -171.89757986 50.12046136 -177.4375 57.5625 C-180.87787402 63.39617768 -182.5276525 69.96107539 -184.421875 76.41796875 C-185.32738036 79.22155266 -186.39294492 81.73574862 -187.6875 84.375 C-190.04540168 89.56050489 -190.30262857 93.64838271 -188.6953125 99.0625 C-185.7434217 106.81929334 -181.51492998 113.86772594 -177.2722168 120.97583008 C-172.90888626 128.29694073 -170.33555662 133.87249078 -171.4375 142.5625 C-173.86580833 147.80764599 -177.33623853 150.17499951 -182.4375 152.5625 C-185.93310927 153.79825179 -189.48643934 154.77549092 -193.0625 155.75 C-201.24820272 158.04609853 -209.37149646 160.4721406 -217.46923828 163.06201172 C-226.99257076 166.10472582 -236.32439307 168.94153015 -246.1875 170.625 C-265.63417478 174.0414146 -281.91622157 185.48227108 -295.4375 199.5625 C-295.4375 200.2225 -295.4375 200.8825 -295.4375 201.5625 C-296.4275 201.8925 -297.4175 202.2225 -298.4375 202.5625 C-298.4375 203.2225 -298.4375 203.8825 -298.4375 204.5625 C-299.0975 204.5625 -299.7575 204.5625 -300.4375 204.5625 C-312.7024114 218.02134082 -317.84760619 232.67910038 -317.75 250.8125 C-317.74806641 252.32094482 -317.74806641 252.32094482 -317.74609375 253.85986328 C-317.65692887 260.79577616 -316.80782955 266.95618178 -315.125 273.6875 C-313.73973876 279.48041062 -313.37142313 284.2435312 -316.3125 289.5625 C-322.47917446 298.18901137 -330.60022568 303.4268611 -339.73876953 308.40039062 C-348.56667842 313.22060194 -354.02752939 317.78390782 -357.4375 327.5625 C-360.07283952 337.83819885 -361.55583696 348.588625 -361.6875 359.1875 C-361.71328125 360.43789063 -361.7390625 361.68828125 -361.765625 362.9765625 C-361.32452625 367.79714165 -360.00923902 371.05096872 -356.5 374.42578125 C-355.819375 374.90402344 -355.13875 375.38226562 -354.4375 375.875 C-353.756875 376.36613281 -353.07625 376.85726563 -352.375 377.36328125 C-342.45159445 383.50538912 -324.38732908 379.60463818 -313.4375 378.1875 C-297.23486965 376.13911329 -281.02905884 375.36848458 -264.72332764 374.69976807 C-261.72010197 374.57430592 -258.71716796 374.44317473 -255.71426773 374.31017971 C-248.60614675 373.99579807 -241.49753262 373.70249109 -234.38743973 373.43619442 C-230.79159828 373.3013802 -227.19635201 373.15992926 -223.60150146 373.0007019 C-219.52540593 372.82103536 -215.44875552 372.67876633 -211.37109375 372.5390625 C-210.15881607 372.48102951 -208.94653839 372.42299652 -207.69752502 372.36320496 C-194.79816946 371.98509614 -184.16101743 376.32168828 -172.75 381.9375 C-171.79544922 382.39382813 -170.84089844 382.85015625 -169.85742188 383.3203125 C-165.18670304 385.58413266 -160.69057957 387.96917938 -156.27734375 390.703125 C-151.88746233 393.38633735 -147.5628661 395.32121015 -142.6875 396.9375 C-141.99140625 397.19660156 -141.2953125 397.45570313 -140.578125 397.72265625 C-129.2265423 401.55381541 -117.3085995 399.52227585 -105.8125 397.375 C-103.19994851 396.90917037 -100.58713308 396.44689194 -97.97265625 395.9921875 C-97.29367783 395.87360886 -96.6146994 395.75503021 -95.91514587 395.63285828 C-90.58198505 394.71853245 -85.23575932 393.96167347 -79.87109375 393.2578125 C-78.66794525 393.09870644 -78.66794525 393.09870644 -77.44049072 392.93638611 C-74.27493497 392.51988767 -71.10938913 392.10559261 -67.94036865 391.71621704 C-51.66605087 389.8544632 -51.66605087 389.8544632 -37.75 381.8125 C-17.21794979 368.6254788 30.19662289 381.76100066 53.41015625 384.48983765 C73.99678015 386.90800576 92.05259883 388.00809448 112.5625 384.5625 C113.97375372 384.32787313 115.38505201 384.0935142 116.79638672 383.859375 C126.13753244 382.30848957 126.13753244 382.30848957 135.47241211 380.72045898 C172.45307133 374.38317909 202.93622956 375.58135663 238.20556641 390.13427734 C249.70028165 394.77622077 262.17962118 397.23132998 274.5625 397.5625 C275.30306641 397.58296387 276.04363281 397.60342773 276.80664062 397.62451172 C292.26172204 397.9911911 307.11129175 397.01930386 322.3046875 394.12890625 C322.99586166 393.99742187 323.68703583 393.8659375 324.39915466 393.73046875 C327.85174521 393.06878008 331.29971683 392.38964815 334.7434082 391.68310547 C348.55259279 388.89977007 361.70837681 387.93551239 375.75 389.75 C376.87132324 389.88946045 377.99264648 390.0289209 379.14794922 390.17260742 C390.749192 391.70948092 400.57453347 393.65031325 409.5625 401.5625 C418.77621045 409.49879336 424.56626216 413.85285568 436.8515625 413.9609375 C446.73696774 412.50803932 454.4807187 403.31636489 460.40625 395.875 C464.05215117 388.58319766 463.61611329 381.51453594 462.6875 373.625 C461.93557069 366.27695005 461.35454122 359.01455429 461.375 351.625 C461.3742749 350.57227905 461.3742749 350.57227905 461.37353516 349.49829102 C461.40845281 346.12954956 461.6163417 342.8323256 462.0546875 339.49609375 C463.71677346 326.95878498 463.71677346 326.95878498 460.00390625 315.22265625 C456.30621759 310.96380075 451.27898841 308.51657792 446.4140625 305.8125 C445.34929688 305.214375 444.28453125 304.61625 443.1875 304 C442.18976562 303.46246094 441.19203125 302.92492187 440.1640625 302.37109375 C437.22118056 300.32521637 436.00940492 298.82768209 434.5625 295.5625 C432.75059634 282.84364688 437.66645624 272.91358808 444.5625 262.5625 C446.39292195 260.31268039 448.26947529 258.17765101 450.27734375 256.0859375 C451.77743313 254.63990109 451.77743313 254.63990109 451.5625 252.5625 C452.2225 252.5625 452.8825 252.5625 453.5625 252.5625 C454.366875 251.593125 455.17125 250.62375 456 249.625 C463.41324907 240.76440231 473.55222599 234.2717493 482.83666992 227.52319336 C493.54143811 219.72698203 502.98766099 211.29497474 505.5625 197.5625 C505.75503007 194.28950499 505.75503007 194.28950499 504.5625 191.5625 C501.13145308 188.38878159 497.96803055 186.73470699 493.5625 185.25 C492.33917969 184.82976562 491.11585938 184.40953125 489.85546875 183.9765625 C486.69877523 182.92708389 483.53201637 181.91090536 480.36328125 180.8984375 C470.84521381 177.83765879 462.18682673 174.68175277 453.5625 169.5625 C450.45520575 167.84140262 447.32454957 166.16613815 444.1875 164.5 C443.3615332 164.05865723 442.53556641 163.61731445 441.68457031 163.16259766 C437.09893767 160.75355144 432.61546257 158.76366717 427.6875 157.125 C421.74853981 155.01957447 417.84719237 151.71805193 413.22729492 147.59033203 C405.22095908 140.47871484 397.2215236 137.42087193 386.5625 136.5625 C385.72380371 136.48531738 384.88510742 136.40813477 384.02099609 136.32861328 C368.22701176 135.03590614 357.49392334 137.72174676 343.73583984 145.39599609 C335.51487183 149.80846353 327.22424005 151.64798185 317.98046875 151.9140625 C317.24862869 151.93721527 316.51678864 151.96036804 315.76277161 151.98422241 C314.21211249 152.03173241 312.66138267 152.07698165 311.1105957 152.12011719 C308.79538267 152.18620456 306.48081099 152.26451858 304.16601562 152.34375 C290.27720042 152.77664042 276.64812586 152.66318423 263.125 149.0625 C261.61075439 148.66937622 261.61075439 148.66937622 260.06591797 148.26831055 C228.54147726 139.79480947 192.25459399 127.10295213 166.91455078 105.89355469 C146.05834392 88.44763973 124.16071924 81.05430254 97.06719971 79.67138672 C94.87822795 79.55946955 92.6898673 79.43892771 90.50146484 79.31640625 C85.85552877 79.0577484 81.20907833 78.80931483 76.5625 78.5625 C71.16866293 78.27599263 65.77513841 77.98504165 60.38214111 77.68310547 C58.24898597 77.56587893 56.11552722 77.4565598 53.98193359 77.34765625 C29.91099197 76.05174176 29.91099197 76.05174176 22.1875 68.125 C19.69443041 64.98261003 17.69735711 61.55402354 15.625 58.125 C8.47362051 46.33681172 0.22352848 38.17712238 -13.4375 34.5625 C-41.38803859 28.9130652 -68.74119918 31.89415665 -96.6421814 35.68466187 Z " fill="#F0F0F0" transform="translate(573.4375,259.4375)"/>
<path d="M0 0 C5.03123434 5.05468997 7.0094798 10.50525079 9.08203125 17.23046875 C11.25020402 23.77189212 15.0815027 27.76383084 21 31 C28.16861196 34.06491587 34.88910258 36.09807991 42.71386719 36.17358398 C43.83984314 36.18707382 44.96581909 36.20056366 46.12591553 36.21446228 C47.33733215 36.22490067 48.54874878 36.23533905 49.796875 36.24609375 C52.39193001 36.2790677 54.98698201 36.31227867 57.58203125 36.34570312 C61.64953608 36.39380301 65.71706857 36.43754195 69.78466797 36.47680664 C88.29106958 36.66578604 106.21836103 37.04837336 124.3125 41.3125 C125.24835938 41.53123779 126.18421875 41.74997559 127.1484375 41.9753418 C142.11492498 45.6037783 154.78070827 52.78758993 167.4609375 61.34375 C174.8366779 66.17955316 182.57515646 69.51241843 190.75 72.75 C193.41390493 73.82212997 196.07478959 74.90157769 198.734375 75.984375 C199.68386772 76.37050461 199.68386772 76.37050461 200.65254211 76.76443481 C207.82395032 79.70715729 214.76351302 82.70949666 220.8125 87.625 C226.50408028 91.7208101 232.17817386 92.82749863 239 94 C252.05233122 96.27345933 261.16953731 99.60258496 271.7734375 107.546875 C281.65454237 113.99559607 299.57998583 110.46325172 310.57421875 108.8828125 C311.34269638 108.77319687 312.11117401 108.66358124 312.90293884 108.55064392 C313.69591873 108.43749344 314.48889862 108.32434296 315.3059082 108.20776367 C335.97642097 105.26801519 356.3261457 104.51463163 377.17061996 104.55795288 C379.42451289 104.56247395 381.67838452 104.56313862 383.93228149 104.56347656 C387.52634287 104.5665094 391.12007412 104.58376658 394.71401596 104.6130352 C396.67976718 104.62838822 398.64556617 104.63719208 400.61135864 104.64576721 C409.70043923 104.76469253 419.20213715 105.04899849 427.4375 109.3125 C428.21996094 109.70050781 429.00242187 110.08851563 429.80859375 110.48828125 C437.44726104 115.75773622 438.94111303 124.82454121 440.6953125 133.3984375 C443.07626264 148.05301792 442.11289131 161.9979271 439.65625 176.52075195 C439.24670135 178.95712339 438.86446777 181.39676918 438.484375 183.83789062 C436.09892414 198.6455155 432.267943 208.69776873 419.9375 218 C411.66074813 223.7823883 402.87660052 228.63611931 393.8125 233.0625 C381.90726089 238.94397271 368.67154692 246.42396117 363 259 C362.64396914 260.32745279 362.30521723 261.659951 362 263 C370.9197764 263.81440654 379.76378997 264.07642341 388.71875 264.02734375 C389.75402832 264.02183502 390.78930664 264.01632629 391.85595703 264.01065063 C396.16675706 263.98300141 400.47741978 263.94790195 404.78808594 263.90405273 C407.97331284 263.87381927 411.15842538 263.85608867 414.34375 263.83984375 C415.31050659 263.82638412 416.27726318 263.8129245 417.27331543 263.79905701 C426.06859024 263.76647436 431.72612427 265.0604075 438.265625 271.20703125 C441.50983673 274.56084472 442.84462996 276.7792354 443.4375 281.4375 C442.73690846 287.14231685 439.56627688 291.3678142 435.06542969 294.91748047 C430.20603899 297.46435262 424.34183255 297.97293739 419 299 C417.97374512 299.20246338 416.94749023 299.40492676 415.89013672 299.61352539 C396.36289424 303.21365266 376.70540463 303.40971823 356.91707611 303.43390274 C354.85038685 303.43743524 352.78377114 303.44607861 350.71710205 303.45565796 C324.93706801 303.55118723 299.79244429 300.98823334 274.32189941 297.2074585 C250.53069238 293.7232576 229.60017804 292.98198951 205.88378906 297.46972656 C201.33285432 298.30655608 196.7636333 299.00433215 192.1875 299.6875 C191.41833252 299.80649658 190.64916504 299.92549316 189.85668945 300.0480957 C179.48241315 301.60856867 169.28792068 302.13360983 158.79562569 302.04459953 C156.63652488 302.02689369 154.47750115 302.01681224 152.31834412 302.00868225 C146.18766009 301.98450277 140.05708106 301.94882618 133.92651367 301.90405273 C130.15314852 301.87702125 126.37984196 301.86014448 122.60639763 301.84918404 C121.18446618 301.84304949 119.76254503 301.83314199 118.34066963 301.81910515 C110.54050001 301.74275019 103.18569109 302.09112587 95.51527405 303.54039001 C90.51507324 304.4540647 85.50357521 304.33779971 80.4375 304.3125 C79.31214844 304.30976074 78.18679688 304.30702148 77.02734375 304.30419922 C66.50670642 304.17418566 56.17095963 303.03131607 45.94818115 300.48991394 C38.14806837 298.66261665 30.38388295 298.69050674 22.421875 298.69921875 C20.92270797 298.69532022 19.42354202 298.69098323 17.92437744 298.68623352 C14.79443775 298.67881188 11.66461092 298.67903215 8.53466797 298.68432617 C4.56331866 298.69010452 0.59243822 298.67320976 -3.37883377 298.6499815 C-6.47276418 298.63510198 -9.56658548 298.63439173 -12.66054535 298.63749123 C-14.12267736 298.63698476 -15.58481661 298.63187698 -17.04691315 298.62167931 C-30.57505238 298.53890819 -42.73399331 300.93789189 -55.4375 305.5 C-85.22685567 315.73087732 -106.3719284 310.3959152 -134.21044922 298.01708984 C-152.28207439 290.04644864 -172.6687874 282.55761653 -192.625 282.6875 C-193.54667969 282.69168945 -194.46835937 282.69587891 -195.41796875 282.70019531 C-218.36781232 283.05177375 -241.53445049 285.81176371 -263.8515625 291.14453125 C-264.6367627 291.32959229 -265.42196289 291.51465332 -266.23095703 291.70532227 C-267.65530452 292.0472331 -269.07632831 292.40365458 -270.49169922 292.78100586 C-277.2817746 294.44540443 -284.05031688 294.15523967 -291 294 C-292.23556641 293.97744141 -293.47113281 293.95488281 -294.74414062 293.93164062 C-298.49705398 293.85162531 -302.24807555 293.74212563 -306 293.625 C-307.26972656 293.5940625 -308.53945313 293.563125 -309.84765625 293.53125 C-311.07355469 293.49257813 -312.29945313 293.45390625 -313.5625 293.4140625 C-314.65691406 293.3826416 -315.75132812 293.3512207 -316.87890625 293.31884766 C-320.20028233 292.97953937 -322.91487195 292.26861443 -326 291 C-329.93519579 286.11492937 -330.39022372 280.20549551 -330.2734375 274.07421875 C-329.15580086 265.59614655 -322.75789084 260.01204991 -316.44140625 254.94921875 C-310.74017037 250.59400057 -304.87008085 246.52955858 -298.9375 242.5 C-285.48147504 234.09314571 -285.48147504 234.09314571 -276 222 C-276.32292389 217.62469788 -277.68469784 214.26557553 -279.57958984 210.39306641 C-283.12668344 203.11033525 -286.0980104 196.20658212 -284 188 C-282.02576169 184.32005957 -279.66105408 181.20347518 -277 178 C-276.67 177.34 -276.34 176.68 -276 176 C-275.34 176 -274.68 176 -274 176 C-273.8040625 175.34773437 -273.608125 174.69546875 -273.40625 174.0234375 C-268.42383467 163.31124455 -258.29562537 152.62075661 -248 147 C-247.37351562 146.63261719 -246.74703125 146.26523437 -246.1015625 145.88671875 C-234.27583016 139.42497893 -220.84131846 136.57611312 -207.8125 133.6875 C-206.10958182 133.30280519 -204.40686685 132.91720984 -202.7043457 132.53076172 C-198.336198 131.5409359 -193.96605416 130.56025601 -189.59533691 129.58184814 C-183.04293272 128.11286576 -176.49436009 126.62699382 -169.94662476 125.13735962 C-167.74684314 124.63845876 -165.54600645 124.14445702 -163.3449707 123.65112305 C-159.55580489 122.79819493 -155.77657606 121.90721321 -152 121 C-151.04351562 120.77973145 -150.08703125 120.55946289 -149.1015625 120.33251953 C-142.76467398 118.69629622 -138.57605693 115.82976422 -133.625 111.625 C-127.20678523 106.40163299 -120.66460025 101.63824894 -113.6875 97.1875 C-112.84767578 96.64923584 -112.00785156 96.11097168 -111.14257812 95.55639648 C-109.51673691 94.51658084 -107.88997971 93.47819569 -106.26220703 92.44140625 C-91.38882045 83.5377392 -91.38882045 83.5377392 -83 69 C-82.45312109 64.41988914 -82.55468159 61.00680685 -84.4375 56.75 C-93.57287506 46.94618286 -108.84389354 44.23783565 -121.375 41.125 C-128.56934222 39.32612051 -135.45586029 37.30510002 -142.25 34.3125 C-142.89888184 34.02713379 -143.54776367 33.74176758 -144.21630859 33.44775391 C-150.0988661 30.71958816 -150.0988661 30.71958816 -152 28 C-153.94558452 20.97716816 -155.05457539 12.87741117 -153.5 5.6875 C-148.86323972 0.47114469 -141.21751942 0.65488947 -134.7746582 0.20776367 C-128.67206944 -0.1281333 -122.56794911 -0.29611235 -116.45861816 -0.44500732 C-112.7012758 -0.53856189 -108.94441052 -0.64845512 -105.1875 -0.7578125 C-104.46226135 -0.77889069 -103.73702271 -0.79996887 -102.98980713 -0.82168579 C-88.13433409 -1.11824743 -88.13433409 -1.11824743 -73.5 -3.4375 C-54.73851792 -7.83674407 -15.75870717 -14.09989589 0 0 Z M29.0369873 73.66418457 C26.85332069 74.02418139 24.6677429 74.37022181 22.48144531 74.71386719 C17.77583229 75.45530398 13.07451741 76.2209109 8.375 77 C7.65010376 77.11933899 6.92520752 77.23867798 6.17834473 77.3616333 C-6.5355065 79.48012375 -18.59486487 82.48231745 -30.53271484 87.44384766 C-38.65407838 90.80401911 -47.05058819 93.47258262 -55.39477539 96.22119141 C-70.03118075 101.14313346 -81.51406375 107.31431601 -92.3125 118.375 C-115.60180002 142.12595542 -145.4185623 149.64661938 -177.51367188 152.82299805 C-196.18816861 154.77421422 -208.09881575 160.20469889 -219.94921875 174.77636719 C-232.26302464 190.20236101 -241.41297601 203.61889154 -240 224 C-239.32474013 229.46795795 -237.70097343 233.85843449 -234 238 C-222.53171046 246.25369323 -212.11824978 247.22892131 -198.34725952 247.40563965 C-158.84505422 247.97197951 -120.35120625 252.63466605 -82.16015625 263.046875 C-75.61057864 264.76320436 -69.52761868 265.17268374 -62.79150391 265.01098633 C-57.07380043 264.90090813 -51.55000512 265.39316812 -45.875 266.0625 C-37.36265996 267.03777909 -29.54357286 266.76862593 -21 266 C-11.36251395 265.45336084 -2.69914703 266.44376494 6.1875 270.4296875 C15.62214231 274.58837852 24.81062046 275.96193722 35 276.875 C35.66978882 276.9363916 36.33957764 276.9977832 37.02966309 277.06103516 C52.19140575 278.40693296 67.02637562 278.26372636 82.1875 276.75 C82.86809479 276.68375427 83.54868958 276.61750854 84.24990845 276.54925537 C98.89367559 275.12008908 113.45307751 273.20620636 128 271 C129.14936035 270.83306641 130.2987207 270.66613281 131.48291016 270.49414062 C172.35117486 264.49744795 217.05265646 253.07493182 252.625 231.625 C264.51527621 224.5429719 277.463398 221.88487567 291 220 C292.09642822 219.84313721 293.19285645 219.68627441 294.32250977 219.5246582 C306.82300423 217.839404 319.36071333 217.11484772 331.94848633 216.39819336 C346.93887559 215.53348566 361.21159922 214.01353593 375.5 209.0625 C376.2321875 208.82337891 376.964375 208.58425781 377.71875 208.33789062 C382.51785978 206.71390616 386.67296208 204.63607705 391 202 C391 201.34 391 200.68 391 200 C391.58652344 199.76667969 392.17304687 199.53335938 392.77734375 199.29296875 C399.44870821 195.41208714 403.61442903 185.92842332 405.6171875 178.8046875 C407.44621685 171.01252135 408.60938275 161.7271399 406 154 C399.23332518 143.84998777 384.67373958 142.26168569 373.5625 139.8125 C372.82475342 139.64548584 372.08700684 139.47847168 371.3269043 139.30639648 C360.78897561 137.09501346 350.00133404 136.94347959 339.27172852 136.70996094 C307.3215516 135.99025988 276.30721135 132.52269547 246 122 C245.28730957 121.76120117 244.57461914 121.52240234 243.84033203 121.27636719 C231.28531206 117.05998011 219.29639006 111.63527834 207.27270508 106.11962891 C200.55343156 103.03942537 193.82997648 100.05130656 186.9375 97.375 C179.2935381 94.38100114 172.20627074 90.43843231 165.09741211 86.34912109 C153.66094639 79.86315016 142.11974658 76.25133006 129.25 73.75 C128.00089844 73.49476563 126.75179688 73.23953125 125.46484375 72.9765625 C115.56891061 70.99110601 106.05351902 69.84859902 95.96484375 69.76171875 C95.02131546 69.7519249 94.07778717 69.74213104 93.10566711 69.73204041 C71.42006189 69.55369918 50.45889237 70.09812999 29.0369873 73.66418457 Z " fill="#F0F0F0" transform="translate(565,320)"/>
<path d="M0 0 C0.68658691 0.23090332 1.37317383 0.46180664 2.08056641 0.69970703 C12.5086954 4.23569577 21.22019893 8.60586919 30.046875 15.31640625 C45.97536715 27.35280389 64.04658949 34.19613974 83 40 C85.15702071 40.66979196 87.31339344 41.34161977 89.46948242 42.0144043 C91.26756162 42.57227504 93.06916086 43.11876768 94.87109375 43.6640625 C97.27591961 44.40446455 99.59852059 45.23346372 101.94482422 46.14868164 C111.60493917 49.85773687 121.05661552 51.64837901 131.25 53.1875 C133.61530792 53.55741245 135.97998863 53.93114248 138.34460449 54.30545044 C139.86289573 54.5451732 141.38152938 54.78273829 142.9005127 55.01803589 C146.74598589 55.6181143 150.55540813 56.29131475 154.359375 57.11328125 C162.92300661 58.8890023 171.61852387 59.05725565 180.3347168 59.18701172 C198.25198477 59.54356051 208.73299613 64.30734726 222 76 C222.7321875 76.64453125 223.464375 77.2890625 224.21875 77.953125 C227.18108169 80.94340322 228.39640559 83.50906038 228.6875 87.625 C228.43776414 91.04580044 228.03206995 91.95755448 225.875 94.8125 C220.62200852 98.80934134 215.94697732 101.60457426 209.625 103.625 C208.96161621 103.83737305 208.29823242 104.04974609 207.61474609 104.26855469 C185.58013352 111.24392897 164.78170519 109.83850695 142.875 103.375 C126.21770688 98.51244539 111.57032092 99.47985358 95.75 106.6875 C86.26618036 110.85761011 76.80511762 114.05987889 66.75488281 116.57885742 C61.13228168 118.05937334 57.77826559 119.33023355 54 124 C40.93782629 137.9346009 25.16805911 144.91606639 6 146 C4.2058085 146.01808523 2.41146558 146.02357662 0.6171875 146.01953125 C-15.84400882 146.071994 -29.9817056 149.74057627 -45.47802734 154.85742188 C-50.61494153 156.52391005 -55.79324809 158.00675991 -61 159.4375 C-61.81621826 159.67170654 -62.63243652 159.90591309 -63.47338867 160.1472168 C-77.95329963 164.13482265 -92.50810327 164.51679339 -107.43676758 164.64526367 C-109.75480113 164.67323074 -112.07268797 164.72081469 -114.38989258 164.78881836 C-130.94451648 165.27042026 -143.51384842 162.95869554 -158.57394409 156.07528687 C-163.91095765 153.70979291 -169.49601835 152.05101771 -175.0625 150.3125 C-176.81409424 149.76033813 -176.81409424 149.76033813 -178.60107422 149.19702148 C-182.06285546 148.11583412 -185.52959441 147.05314457 -189 146 C-190.02109863 145.68869141 -191.04219727 145.37738281 -192.09423828 145.05664062 C-215.34684091 138.0611706 -235.61157611 136.97052643 -259.5 141.0625 C-269.79096821 142.81606919 -279.57936082 143.70119722 -290 143 C-290.68835938 142.95601074 -291.37671875 142.91202148 -292.0859375 142.86669922 C-302.19580644 142.12514987 -308.39004907 140.10886931 -315.875 133.4375 C-321.67646235 128.91235937 -328.05146323 127.16113118 -335.1875 125.75 C-340.54649131 124.47075691 -343.54495478 122.60969146 -346.8359375 118.17578125 C-348.36294655 115.32160661 -349.00210335 113.2441463 -348.671875 110.01171875 C-346.97528779 104.93182099 -343.26449768 101.23653492 -338.625 98.703125 C-336.93518383 97.93214637 -335.24101123 97.17065626 -333.54296875 96.41796875 C-329.78342822 94.32163509 -327.25972009 91.3444587 -324.49609375 88.0859375 C-320.98310288 85.15019865 -317.36811985 84.20611954 -313 83 C-312.12013428 82.75523926 -311.24026855 82.51047852 -310.33374023 82.25830078 C-308.41991372 81.7351204 -306.50454888 81.21754325 -304.58789062 80.70483398 C-294.4298547 77.9749823 -284.41938863 74.93959691 -274.5 71.4375 C-273.48099609 71.08606934 -272.46199219 70.73463867 -271.41210938 70.37255859 C-255.37068431 64.57390809 -243.18576935 53.45134161 -235.109375 38.5 C-234.7788916 37.88987061 -234.4484082 37.27974121 -234.10791016 36.65112305 C-233.17742721 34.91056988 -232.27909785 33.1529386 -231.3828125 31.39453125 C-226.41623267 23.38309606 -217.18465713 19.21032303 -208.9375 15.375 C-207.92961426 14.9013501 -206.92172852 14.4277002 -205.88330078 13.93969727 C-190.38503569 6.80250068 -175.53840857 3.42101062 -158.4881134 2.29852295 C-141.05070252 1.1496416 -124.27301944 -1.36023366 -107.20581055 -5.13134766 C-71.74635348 -12.88813943 -34.43412208 -11.84946244 0 0 Z M-74 21 C-73.81171228 23.44480079 -73.81171228 23.44480079 -73 26 C-69.82752779 28.1208393 -66.794466 28.39068463 -63.046875 28.7109375 C-61.87737305 28.81913818 -60.70787109 28.92733887 -59.50292969 29.03881836 C-58.26446289 29.1497583 -57.02599609 29.26069824 -55.75 29.375 C-24.61606334 32.44664318 -24.61606334 32.44664318 -14.3125 41.3125 C-12.14029051 43.23376447 -12.14029051 43.23376447 -9.5 43.0625 C-5.65207674 41.42713262 -2.873492 38.746984 -1 35 C-0.74139865 30.94857881 -0.69558446 29.45662331 -3 26 C-3.66 26 -4.32 26 -5 26 C-5 25.34 -5 24.68 -5 24 C-12.81494601 20.03771275 -20.39332206 17.60882999 -29 16 C-29.70769531 15.86722656 -30.41539062 15.73445313 -31.14453125 15.59765625 C-44.5230427 13.54159028 -62.25271117 13.65794448 -74 21 Z M-137.75 46.625 C-139.1781737 48.86642678 -139.1781737 48.86642678 -138.9375 51.125 C-136.71707248 55.56585504 -133.37542197 56.85736438 -128.875 58.625 C-123.08333333 60.91666667 -123.08333333 60.91666667 -122 62 C-121.51886671 66.61887954 -122.0122461 69.38422396 -124.0625 73.5625 C-125.49272013 76.55527379 -126 77.91283694 -126 81.3125 C-124.77704858 84.59918193 -123.93709544 86.04193637 -121 88 C-116.65179412 88.42769238 -113.80355616 88.23809071 -109.625 87 C-104.51271839 85.58971542 -98.85981473 84.88869944 -93.80859375 86.8515625 C-91.32497387 88.4286343 -90.35089723 90.43329526 -89 93 C-81.84406784 92.55952385 -76.40587523 90.83635407 -69.9375 87.8125 C-68.6680957 87.25079102 -68.6680957 87.25079102 -67.37304688 86.67773438 C-59.87882645 83.25130977 -53.12455065 79.12350194 -48.125 72.4375 C-47.57070313 71.71433594 -47.01640625 70.99117187 -46.4453125 70.24609375 C-43.34447946 65.4272316 -42.77601285 61.71167228 -43 56 C-47.98935066 58.11087912 -51.78347807 61.78347807 -55.5625 65.5625 C-64.3877906 74.3877906 -74.76412998 78.7380089 -87.1875 79.3125 C-94.26531144 78.73235152 -99.00240494 75.77043165 -104 71 C-107.41784464 66.75715838 -108 62.32003931 -108 57 C-107.30068348 50.85912681 -105.06424568 45.19533671 -102.8046875 39.48046875 C-101.79428136 36.80048869 -101.79428136 36.80048869 -102 33 C-114.08679146 32.47313986 -128.95900586 38.2335965 -137.75 46.625 Z M-225.3125 72.875 C-243.94928751 90.11651999 -270.69585239 98.7444265 -294.58618164 105.97924805 C-297.31118124 106.87061546 -297.31118124 106.87061546 -299 110 C-285.76007712 117.61295566 -267.10154135 114.10639249 -252.625 112.4375 C-240.79591922 111.12550219 -229.81827216 110.80158508 -218 112 C-216.65162314 112.12519396 -215.30314466 112.24929625 -213.95458984 112.37255859 C-210.10277586 112.72772786 -206.25433702 113.10999677 -202.40679932 113.50875854 C-200.86948224 113.66695703 -199.33168188 113.82054202 -197.793396 113.96902466 C-184.33546223 115.29280127 -173.03755584 118.97153206 -161.1875 125.625 C-135.10398802 140.15128325 -102.10709619 133.52193707 -73.6875 129.125 C-72.88532043 129.00211609 -72.08314087 128.87923218 -71.25665283 128.75262451 C-62.54713923 127.4042262 -53.88652266 125.85776569 -45.265625 124.0234375 C-44.53731979 123.87415802 -43.80901459 123.72487854 -43.05863953 123.57107544 C-36.96674884 122.22505111 -32.16838267 119.65958382 -26.70703125 116.65234375 C-22.417659 114.52721403 -17.93327821 113.86554247 -13.25 113.0625 C-4.90290927 111.55771617 -0.10186607 109.03138247 6 103 C17.72231937 92.3227552 29.25081078 84.93627132 44.49609375 80.21484375 C49.81786704 78.36972503 56.04437148 75.96695044 59.25390625 71.09765625 C60.61064375 67.2831639 60.41782871 63.78087656 59 60 C51.34726269 53.16454532 38.46558218 54.64480067 29 55 C17.45217805 55.83659993 10.12089935 59.88716904 1.875 67.875 C-4.08930133 73.49391099 -10.65350197 76.65973034 -18.03515625 80.07958984 C-25.19075246 83.43155278 -31.95600799 86.94162574 -38 92.0625 C-43.46522794 96.656731 -49.49869262 99.16136987 -56 102 C-57.69020264 102.74793823 -57.69020264 102.74793823 -59.41455078 103.51098633 C-78.10015073 111.57282212 -93.46461106 114.69833947 -114 113 C-115.62753564 112.90635334 -117.25513313 112.81377054 -118.8828125 112.72265625 C-128.42716429 112.02860094 -137.832269 109.81761448 -144.3046875 102.3359375 C-145.6222582 100.49133852 -146.88967752 98.6090807 -148.0859375 96.68359375 C-152.16545763 90.96394002 -157.34995769 88.1277541 -163.5 85.125 C-171.97076196 80.73514796 -176.15147356 77.17283099 -179.1875 67.875 C-181.01156358 61.30379187 -182.56006763 54.66514151 -184 48 C-199.69593406 45.85964536 -214.89454744 63.07138231 -225.3125 72.875 Z " fill="#F0F0F0" transform="translate(725,414)"/>
<path d="M0 0 C4.82892047 4.94389477 7.25230675 9.96056746 7.9375 16.8125 C7.22395361 25.66047518 2.86729237 33.81558738 -3.5625 39.875 C-11.77511334 46.46238038 -21.18208353 46.53404974 -31.375 45.6875 C-35.13759952 44.85936805 -37.62502543 43.82876565 -39.8125 40.5 C-39.998125 39.901875 -40.18375 39.30375 -40.375 38.6875 C-41.035 38.6875 -41.695 38.6875 -42.375 38.6875 C-47.93033681 31.89428923 -50.97169895 25.16498852 -50.74609375 16.33984375 C-49.66543833 8.61600133 -45.39823141 2.86418863 -39.421875 -1.91015625 C-27.55933726 -10.03735291 -11.32549243 -8.60056192 0 0 Z M-31.25 16 C-32.71385836 19.49699498 -32.85306818 21.93124999 -32.375 25.6875 C-30.72596518 28.41199231 -29.3969582 29.38367459 -26.3515625 30.2890625 C-22.12736167 31.02433295 -19.17333293 30.96604101 -15.375 28.875 C-12.35061188 27.02140552 -12.35061188 27.02140552 -11.375 24.6875 C-10.74805103 19.62712616 -10.57878426 15.89388749 -13.4375 11.5625 C-20.40922839 7.1124606 -26.37230554 9.98417683 -31.25 16 Z " fill="#F0F0F0" transform="translate(213.375,453.3125)"/>
<path d="M0 0 C4.07844361 4.18301909 5.15466634 7.56864704 5.25 13.3125 C5.16968667 18.86142114 4.37944554 22.38196507 0.55859375 26.5859375 C-4.27264849 31.18178278 -9.59283727 33.75223787 -16.29296875 34.12890625 C-21.98751234 33.80546402 -26.72480858 31.80358757 -31 28 C-34.16971076 23.1936412 -33.67113295 17.51436044 -33 12 C-30.91389375 5.93865265 -27.80584571 1.90292286 -22 -1 C-14.29338957 -3.80240379 -7.25042943 -3.98773619 0 0 Z M-18 12 C-19.38125018 14.76250036 -19.19079306 16.94731099 -19 20 C-17.11499729 22.31563087 -17.11499729 22.31563087 -14 22.25 C-10.88500271 22.31563087 -10.88500271 22.31563087 -9 20 C-8.83322718 16.41656024 -8.83322718 16.41656024 -9 13 C-12.31957615 10.9098965 -14.26793158 10.78959943 -18 12 Z " fill="#F0F0F0" transform="translate(148,490)"/>
<path d="M0 0 C5.71445228 3.40957773 8.40348184 6.36904003 10.58984375 12.7109375 C12.63513078 24.125587 11.8253104 36.69760171 5.25 46.4375 C1.1204793 51.51998701 -3.659441 52.89859114 -10 54 C-33.74765702 55.88606103 -33.74765702 55.88606103 -42 49 C-47.34304989 43.88925662 -51.63295562 35.8280453 -52.203125 28.328125 C-52.34581359 18.95824123 -50.54069574 12.95523909 -44.16015625 5.9921875 C-30.42189051 -6.67782249 -16.61216817 -7.56002863 0 0 Z M-35.6875 22.9375 C-37.15474612 25.83751658 -37.15474612 25.83751658 -37.0625 28.5625 C-35.48047198 32.19185841 -34.28643777 33.66157312 -31 36 C-24.06190884 37.87042829 -17.00888555 38.75222139 -10 37 C-7.23898854 35.17890734 -5.47899452 33.95798903 -4 31 C-3.44487185 26.36786507 -3.3635758 23.01827873 -5.875 19 C-10.02650369 15.09270241 -14.02699061 15.66783545 -19.52734375 15.72265625 C-26.15944789 16.25232936 -31.16676041 17.9962265 -35.6875 22.9375 Z " fill="#F0F0F0" transform="translate(1130,513)"/>
<path d="M0 0 C6.40524156 3.2233721 8.68396162 8.79564253 10.99609375 15.28515625 C11.80563998 20.07795647 12.10548589 24.44605698 9.53515625 28.70703125 C5.61797493 33.23575564 2.09557514 36.50649905 -4.00390625 37.28515625 C-10.03788679 37.70894753 -14.84305701 37.84859978 -20.00390625 34.28515625 C-24.48808795 29.42729274 -26.55218872 25.36989019 -26.37890625 18.78515625 C-25.19355109 10.88278852 -20.22701986 4.10733196 -14.00390625 -0.71484375 C-9.28160091 -2.28894553 -4.67378478 -1.66725656 0 0 Z M-14.00390625 16.28515625 C-14.42116303 19.91115047 -14.42116303 19.91115047 -14.00390625 23.28515625 C-10.36925023 25.6113361 -7.24353906 25.59920312 -3.00390625 25.28515625 C-0.65504193 23.34440739 -0.65504193 23.34440739 -0.56640625 19.84765625 C-0.60665415 16.17027495 -0.60665415 16.17027495 -3.31640625 14.34765625 C-7.81021302 12.57103497 -10.34536596 13.21989276 -14.00390625 16.28515625 Z " fill="#F0F0F0" transform="translate(1152.00390625,562.71484375)"/>
<path d="M0 0 C5.65719108 4.51127818 8.88682473 9.3248905 9.95703125 16.5234375 C10.45045081 24.65252477 7.93181647 31.78014113 2.71875 38.015625 C-2.53777801 43.26006904 -7.66458189 44.08058146 -14.98046875 44.1484375 C-22.93207108 44.01107427 -28.63485552 43.06676037 -34.73046875 37.6484375 C-40.89943236 31.02877335 -43.30556871 21.83744875 -43.203125 12.96875 C-42.88099696 9.70225864 -41.8037382 7.41207742 -39.98046875 4.7109375 C-38.99046875 4.3809375 -38.00046875 4.0509375 -36.98046875 3.7109375 C-36.98046875 3.0509375 -36.98046875 2.3909375 -36.98046875 1.7109375 C-35.08714341 0.89261028 -33.19069142 0.08151482 -31.29296875 -0.7265625 C-30.23722656 -1.17902344 -29.18148438 -1.63148438 -28.09375 -2.09765625 C-18.77511365 -5.66375924 -8.52965782 -5.55184829 0 0 Z M-26.98046875 12.7109375 C-28.41782121 15.58564243 -28.36219524 17.52988338 -27.98046875 20.7109375 C-24.77788769 24.10190568 -21.52197729 25.76836026 -16.98046875 26.7109375 C-10.72708354 26.82570745 -10.72708354 26.82570745 -5.20703125 24.37109375 C-3.1066242 21.52818612 -3.57015074 19.11071532 -3.98046875 15.7109375 C-5.7760928 12.95764729 -7.03301797 11.18466289 -9.98046875 9.7109375 C-16.23325695 9.17965484 -21.62766542 9.04849311 -26.98046875 12.7109375 Z " fill="#F0F0F0" transform="translate(386.98046875,710.2890625)"/>
</svg>
